<svg xmlns="http://www.w3.org/2000/svg" viewBox="0 0 300 300"><defs><style>.cls-1{fill:#0e1726;}.cls-2{fill:#fb4;}.cls-3{fill:#e0e6ed;}</style></defs><title>Ресурс 10</title><g id="Слой_2" data-name="Слой 2"><g id="Слой_1-2" data-name="Слой 1"><polyline class="cls-1" points="0 0 300 0 300 300 0 300 0 40.2"/><path class="cls-2" d="M179.26,220.67C125,220.52,80.67,176,80,121.1S125.66,20.25,181.07,20.54c54.09.28,98.93,45.48,99.07,99.89C280.29,176.23,235.41,220.82,179.26,220.67Z"/><path class="cls-3" d="M179.45,240.34c-65.2-.18-118.56-53.72-119.34-119.74C59.61,79,81.68,41.52,114.8,19.68H.4L.74,155.56H38.91c14.3,0,14.41.18,14.48,14.67q0,64.72,0,129.44H185.76q.08-29.75.19-59.48Q182.73,240.34,179.45,240.34Z"/></g></g></svg>