<svg xmlns="http://www.w3.org/2000/svg" viewBox="0 0 300.07 300"><defs><style>.cls-1{fill:#0e1726;}.cls-2,.cls-3{fill:#e0e6ed;}.cls-3{stroke:#0e1726;stroke-miterlimit:10;stroke-width:20px;}</style></defs><title>Ресурс 8</title><g id="Слой_2" data-name="Слой 2"><g id="Слой_1-2" data-name="Слой 1"><polyline class="cls-1" points="0 0 300 0 300 300 0 300 0 40.2"/><path class="cls-2" d="M0,20q86.24,0,172.46,0c14.22,0,14.54.25,14.4,14.73Q185.63,167.37,185.37,300H53q0-64.72,0-129.44c-.07-14.49-.18-14.66-14.49-14.67H.35"/><path class="cls-3" d="M179.18,230.6c-59.6-.16-108.38-49.1-109.1-109.45S120.26,10.29,181.16,10.6c59.47.31,108.76,50,108.91,109.81C290.24,181.76,240.91,230.77,179.18,230.6Z"/></g></g></svg>